<svg xmlns="http://www.w3.org/2000/svg" viewBox="0 0 32 32" fill="none">
  <!-- Background circle -->
  <circle cx="16" cy="16" r="16" fill="#09090b"/>
  
  <!-- Lightbulb glow -->
  <circle cx="16" cy="13" r="8" fill="#22c55e" fill-opacity="0.2"/>
  
  <!-- Lightbulb glass -->
  <path d="M16 5C12.134 5 9 8.134 9 12c0 2.393 1.195 4.505 3.02 5.78.456.319.98.72.98 1.27V20c0 .552.448 1 1 1h4c.552 0 1-.448 1-1v-.95c0-.55.524-.951.98-1.27C21.805 16.505 23 14.393 23 12c0-3.866-3.134-7-7-7z" fill="#22c55e"/>
  
  <!-- Lightbulb base -->
  <rect x="12" y="22" width="8" height="2" rx="0.5" fill="#22c55e"/>
  <rect x="13" y="25" width="6" height="2" rx="1" fill="#22c55e"/>
  
  <!-- Filament lines (rays) -->
  <path d="M16 8v2M13 10l1 1M19 10l-1 1" stroke="#09090b" stroke-width="1.5" stroke-linecap="round"/>
</svg>
